<svg width="18" height="15" viewBox="0 0 18 15" fill="none" xmlns="http://www.w3.org/2000/svg">
<path d="M17.75 1.36718L15.0938 13.7891C14.8854 14.6745 14.4036 14.9088 13.6484 14.4922L9.625 11.5234L7.67188 13.3984C7.41146 13.6588 7.13802 13.7891 6.85157 13.7891L7.16407 9.68749L14.625 2.96874C14.8073 2.78645 14.8073 2.68228 14.625 2.65624C14.4688 2.60416 14.2995 2.64322 14.1172 2.77343L4.89844 8.59374L0.914066 7.34374C0.471358 7.21353 0.263024 7.01822 0.289066 6.7578C0.315108 6.49739 0.588545 6.27603 1.10938 6.09374L16.6172 0.0781163C17.0078 -0.0520921 17.3203 -8.71718e-06 17.5547 0.234366C17.7891 0.4427 17.8542 0.820304 17.75 1.36718Z" fill="white" fill-opacity="0.5"/>
</svg>
