<svg width="691" height="385" viewBox="0 0 691 385" fill="none" xmlns="http://www.w3.org/2000/svg">
<line x1="25.128" y1="0.777925" x2="194.313" y2="98.4572" stroke="white"/>
<line x1="532.004" y1="292.99" x2="690.089" y2="384.26" stroke="white"/>
<path d="M19.0781 195.953V196.672C19.0781 197.526 18.9714 198.292 18.7578 198.969C18.5443 199.646 18.237 200.221 17.8359 200.695C17.4349 201.169 16.9531 201.531 16.3906 201.781C15.8333 202.031 15.2083 202.156 14.5156 202.156C13.8438 202.156 13.2266 202.031 12.6641 201.781C12.1068 201.531 11.6224 201.169 11.2109 200.695C10.8047 200.221 10.4896 199.646 10.2656 198.969C10.0417 198.292 9.92969 197.526 9.92969 196.672V195.953C9.92969 195.099 10.0391 194.336 10.2578 193.664C10.4818 192.987 10.7969 192.411 11.2031 191.938C11.6094 191.458 12.0911 191.094 12.6484 190.844C13.2109 190.594 13.8281 190.469 14.5 190.469C15.1927 190.469 15.8177 190.594 16.375 190.844C16.9375 191.094 17.4193 191.458 17.8203 191.938C18.2266 192.411 18.5365 192.987 18.75 193.664C18.9688 194.336 19.0781 195.099 19.0781 195.953ZM17.5859 196.672V195.938C17.5859 195.26 17.5156 194.661 17.375 194.141C17.2396 193.62 17.0391 193.182 16.7734 192.828C16.5078 192.474 16.1823 192.206 15.7969 192.023C15.4167 191.841 14.9844 191.75 14.5 191.75C14.0312 191.75 13.6068 191.841 13.2266 192.023C12.8516 192.206 12.5286 192.474 12.2578 192.828C11.9922 193.182 11.7865 193.62 11.6406 194.141C11.4948 194.661 11.4219 195.26 11.4219 195.938V196.672C11.4219 197.354 11.4948 197.958 11.6406 198.484C11.7865 199.005 11.9948 199.445 12.2656 199.805C12.5417 200.159 12.8672 200.427 13.2422 200.609C13.6224 200.792 14.0469 200.883 14.5156 200.883C15.0052 200.883 15.4401 200.792 15.8203 200.609C16.2005 200.427 16.5208 200.159 16.7812 199.805C17.0469 199.445 17.2474 199.005 17.3828 198.484C17.5182 197.958 17.5859 197.354 17.5859 196.672ZM33.5212 191.758H35.4041C36.0603 191.758 36.6671 191.87 37.2244 192.094C37.7869 192.312 38.2765 192.625 38.6931 193.031C39.115 193.438 39.4431 193.922 39.6775 194.484C39.9119 195.042 40.0291 195.659 40.0291 196.336C40.0291 197.013 39.9119 197.633 39.6775 198.195C39.4431 198.758 39.115 199.245 38.6931 199.656C38.2765 200.062 37.7869 200.378 37.2244 200.602C36.6671 200.82 36.0603 200.93 35.4041 200.93H33.5212C32.865 200.93 32.2582 200.82 31.7009 200.602C31.1436 200.378 30.6541 200.062 30.2322 199.656C29.8155 199.25 29.49 198.768 29.2556 198.211C29.0265 197.648 28.9119 197.029 28.9119 196.352C28.9119 195.674 29.0265 195.057 29.2556 194.5C29.49 193.938 29.8155 193.453 30.2322 193.047C30.6541 192.635 31.1436 192.318 31.7009 192.094C32.2582 191.87 32.865 191.758 33.5212 191.758ZM33.5212 192.945C32.839 192.945 32.2608 193.089 31.7869 193.375C31.3129 193.656 30.9535 194.052 30.7087 194.562C30.464 195.073 30.3416 195.669 30.3416 196.352C30.3416 196.867 30.4093 197.333 30.5447 197.75C30.6853 198.167 30.891 198.523 31.1619 198.82C31.4327 199.117 31.766 199.346 32.1619 199.508C32.5577 199.669 33.0108 199.75 33.5212 199.75H35.4197C36.0968 199.75 36.6697 199.609 37.1384 199.328C37.6124 199.042 37.9718 198.643 38.2166 198.133C38.4666 197.617 38.5916 197.018 38.5916 196.336C38.5916 195.826 38.5212 195.362 38.3806 194.945C38.24 194.529 38.0343 194.172 37.7634 193.875C37.4978 193.578 37.1671 193.349 36.7712 193.188C36.3806 193.026 35.9301 192.945 35.4197 192.945H33.5212ZM35.1931 190.156V202.469H33.7478V190.156H35.1931ZM51.7456 199.391L57.3472 190.625H58.855V202H57.3472V193.227L51.7456 202H50.2456V190.625H51.7456V199.391ZM79.7044 200.734L79.5638 204.742H78.2122V202H77.095V200.734H79.7044ZM69.8841 202V190.625H71.3997V200.773H77.0013V190.625H78.5091V202H69.8841ZM91.3506 199.391L96.9522 190.625H98.46V202H96.9522V193.227L91.3506 202H89.8506V190.625H91.3506V199.391ZM113.794 191.633L110.028 202H108.489L112.825 190.625H113.817L113.794 191.633ZM116.95 202L113.177 191.633L113.153 190.625H114.145L118.497 202H116.95ZM116.755 197.789V199.023H110.364V197.789H116.755ZM135.713 190.625V191.859H130.51V190.625H135.713ZM137.01 190.625V202H135.503V190.625H137.01ZM129.995 190.625H131.495L131.237 196.195C131.2 196.997 131.138 197.714 131.049 198.344C130.966 198.969 130.846 199.513 130.69 199.977C130.534 200.435 130.331 200.815 130.081 201.117C129.831 201.414 129.523 201.635 129.159 201.781C128.799 201.927 128.367 202 127.862 202H127.456V200.773L127.768 200.75C128.06 200.729 128.31 200.664 128.518 200.555C128.732 200.44 128.911 200.268 129.057 200.039C129.208 199.81 129.331 199.513 129.424 199.148C129.518 198.784 129.591 198.339 129.643 197.812C129.7 197.281 129.745 196.661 129.776 195.953L129.995 190.625ZM149.071 195.258H152.172C153.006 195.258 153.709 195.398 154.282 195.68C154.854 195.956 155.289 196.344 155.586 196.844C155.883 197.344 156.032 197.93 156.032 198.602C156.032 199.102 155.948 199.56 155.782 199.977C155.615 200.388 155.367 200.747 155.039 201.055C154.711 201.357 154.308 201.591 153.828 201.758C153.349 201.919 152.797 202 152.172 202H147.922V190.625H149.43V200.773H152.172C152.729 200.773 153.18 200.672 153.524 200.469C153.873 200.26 154.128 199.99 154.289 199.656C154.451 199.323 154.532 198.966 154.532 198.586C154.532 198.206 154.451 197.857 154.289 197.539C154.128 197.221 153.873 196.969 153.524 196.781C153.18 196.589 152.729 196.492 152.172 196.492H149.071V195.258ZM173.686 195.516V196.742H167.529V195.516H173.686ZM167.764 190.625V202H166.256V190.625H167.764ZM174.998 190.625V202H173.498V190.625H174.998ZM187.137 195.258H190.238C191.071 195.258 191.775 195.398 192.348 195.68C192.92 195.956 193.355 196.344 193.652 196.844C193.949 197.344 194.098 197.93 194.098 198.602C194.098 199.102 194.014 199.56 193.848 199.977C193.681 200.388 193.433 200.747 193.105 201.055C192.777 201.357 192.374 201.591 191.894 201.758C191.415 201.919 190.863 202 190.238 202H185.988V190.625H187.496V200.773H190.238C190.795 200.773 191.246 200.672 191.59 200.469C191.939 200.26 192.194 199.99 192.355 199.656C192.517 199.323 192.598 198.966 192.598 198.586C192.598 198.206 192.517 197.857 192.355 197.539C192.194 197.221 191.939 196.969 191.59 196.781C191.246 196.589 190.795 196.492 190.238 196.492H187.137V195.258ZM196.98 190.625V202H195.473V190.625H196.98ZM209.572 199.391L215.173 190.625H216.681V202H215.173V193.227L209.572 202H208.072V190.625H209.572V199.391ZM213.572 187.805H214.744C214.744 188.211 214.65 188.573 214.462 188.891C214.275 189.203 214.007 189.448 213.658 189.625C213.309 189.802 212.895 189.891 212.416 189.891C211.692 189.891 211.119 189.698 210.697 189.312C210.28 188.922 210.072 188.419 210.072 187.805H211.244C211.244 188.112 211.332 188.383 211.509 188.617C211.686 188.852 211.989 188.969 212.416 188.969C212.832 188.969 213.129 188.852 213.306 188.617C213.483 188.383 213.572 188.112 213.572 187.805ZM246.739 198.383H248.239C248.161 199.102 247.956 199.745 247.622 200.312C247.289 200.88 246.818 201.331 246.208 201.664C245.599 201.992 244.838 202.156 243.927 202.156C243.26 202.156 242.653 202.031 242.107 201.781C241.565 201.531 241.099 201.177 240.708 200.719C240.318 200.255 240.015 199.701 239.802 199.055C239.594 198.404 239.489 197.68 239.489 196.883V195.75C239.489 194.953 239.594 194.232 239.802 193.586C240.015 192.935 240.32 192.378 240.716 191.914C241.117 191.451 241.599 191.094 242.161 190.844C242.724 190.594 243.357 190.469 244.06 190.469C244.919 190.469 245.646 190.63 246.239 190.953C246.833 191.276 247.294 191.724 247.622 192.297C247.956 192.865 248.161 193.523 248.239 194.273H246.739C246.666 193.742 246.531 193.286 246.333 192.906C246.135 192.521 245.854 192.224 245.489 192.016C245.125 191.807 244.648 191.703 244.06 191.703C243.554 191.703 243.109 191.799 242.724 191.992C242.344 192.185 242.023 192.458 241.763 192.812C241.508 193.167 241.315 193.591 241.185 194.086C241.054 194.581 240.989 195.13 240.989 195.734V196.883C240.989 197.44 241.047 197.964 241.161 198.453C241.281 198.943 241.461 199.372 241.7 199.742C241.94 200.112 242.245 200.404 242.614 200.617C242.984 200.826 243.422 200.93 243.927 200.93C244.568 200.93 245.078 200.828 245.458 200.625C245.838 200.422 246.125 200.13 246.318 199.75C246.515 199.37 246.656 198.914 246.739 198.383ZM262.745 191.633L258.979 202H257.44L261.776 190.625H262.768L262.745 191.633ZM265.901 202L262.128 191.633L262.104 190.625H263.097L267.448 202H265.901ZM265.706 197.789V199.023H259.315V197.789H265.706ZM278.782 199.391L284.383 190.625H285.891V202H284.383V193.227L278.782 202H277.282V190.625H278.782V199.391ZM282.782 187.805H283.954C283.954 188.211 283.86 188.573 283.672 188.891C283.485 189.203 283.217 189.448 282.868 189.625C282.519 189.802 282.105 189.891 281.626 189.891C280.902 189.891 280.329 189.698 279.907 189.312C279.49 188.922 279.282 188.419 279.282 187.805H280.454C280.454 188.112 280.542 188.383 280.719 188.617C280.896 188.852 281.199 188.969 281.626 188.969C282.042 188.969 282.339 188.852 282.516 188.617C282.693 188.383 282.782 188.112 282.782 187.805ZM301.077 190.625V202H299.592V190.625H301.077ZM304.733 190.625V191.859H295.944V190.625H304.733ZM326.611 190.625H328.127V200.773H332.033V190.625H333.533V200.773H337.416V190.625H338.924V202H326.611V190.625ZM351.437 190.625V202H349.929V190.625H351.437ZM358.445 190.625L353.508 196.883H350.836L350.601 195.633H352.609L356.578 190.625H358.445ZM356.929 202L352.656 196.688L353.5 195.367L358.773 202H356.929ZM376.888 195.953V196.672C376.888 197.526 376.781 198.292 376.568 198.969C376.354 199.646 376.047 200.221 375.646 200.695C375.245 201.169 374.763 201.531 374.201 201.781C373.643 202.031 373.018 202.156 372.326 202.156C371.654 202.156 371.037 202.031 370.474 201.781C369.917 201.531 369.432 201.169 369.021 200.695C368.615 200.221 368.3 199.646 368.076 198.969C367.852 198.292 367.74 197.526 367.74 196.672V195.953C367.74 195.099 367.849 194.336 368.068 193.664C368.292 192.987 368.607 192.411 369.013 191.938C369.419 191.458 369.901 191.094 370.458 190.844C371.021 190.594 371.638 190.469 372.31 190.469C373.003 190.469 373.628 190.594 374.185 190.844C374.747 191.094 375.229 191.458 375.63 191.938C376.037 192.411 376.346 192.987 376.56 193.664C376.779 194.336 376.888 195.099 376.888 195.953ZM375.396 196.672V195.938C375.396 195.26 375.326 194.661 375.185 194.141C375.05 193.62 374.849 193.182 374.583 192.828C374.318 192.474 373.992 192.206 373.607 192.023C373.227 191.841 372.794 191.75 372.31 191.75C371.841 191.75 371.417 191.841 371.037 192.023C370.662 192.206 370.339 192.474 370.068 192.828C369.802 193.182 369.596 193.62 369.451 194.141C369.305 194.661 369.232 195.26 369.232 195.938V196.672C369.232 197.354 369.305 197.958 369.451 198.484C369.596 199.005 369.805 199.445 370.076 199.805C370.352 200.159 370.677 200.427 371.052 200.609C371.432 200.792 371.857 200.883 372.326 200.883C372.815 200.883 373.25 200.792 373.63 200.609C374.011 200.427 374.331 200.159 374.591 199.805C374.857 199.445 375.057 199.005 375.193 198.484C375.328 197.958 375.396 197.354 375.396 196.672ZM394.448 190.625V191.859H389.245V190.625H394.448ZM395.745 190.625V202H394.237V190.625H395.745ZM388.73 190.625H390.23L389.972 196.195C389.935 196.997 389.873 197.714 389.784 198.344C389.701 198.969 389.581 199.513 389.425 199.977C389.269 200.435 389.066 200.815 388.816 201.117C388.566 201.414 388.258 201.635 387.894 201.781C387.534 201.927 387.102 202 386.597 202H386.191V200.773L386.503 200.75C386.795 200.729 387.045 200.664 387.253 200.555C387.467 200.44 387.646 200.268 387.792 200.039C387.943 199.81 388.066 199.513 388.159 199.148C388.253 198.784 388.326 198.339 388.378 197.812C388.435 197.281 388.48 196.661 388.511 195.953L388.73 190.625ZM407.923 195.258H411.024C411.858 195.258 412.561 195.398 413.134 195.68C413.707 195.956 414.142 196.344 414.438 196.844C414.735 197.344 414.884 197.93 414.884 198.602C414.884 199.102 414.8 199.56 414.634 199.977C414.467 200.388 414.22 200.747 413.892 201.055C413.563 201.357 413.16 201.591 412.681 201.758C412.201 201.919 411.649 202 411.024 202H406.774V190.625H408.282V200.773H411.024C411.582 200.773 412.032 200.672 412.376 200.469C412.725 200.26 412.98 199.99 413.142 199.656C413.303 199.323 413.384 198.966 413.384 198.586C413.384 198.206 413.303 197.857 413.142 197.539C412.98 197.221 412.725 196.969 412.376 196.781C412.032 196.589 411.582 196.492 411.024 196.492H407.923V195.258ZM417.767 190.625V202H416.259V190.625H417.767ZM454.965 197.664V198.773H450.153V197.664H454.965ZM449.879 193.961V193.188C449.879 192.651 449.989 192.182 450.207 191.781C450.426 191.375 450.734 191.06 451.129 190.836C451.53 190.612 452.004 190.5 452.551 190.5C453.103 190.5 453.577 190.612 453.973 190.836C454.374 191.06 454.681 191.375 454.895 191.781C455.114 192.182 455.223 192.651 455.223 193.188V193.961C455.223 194.497 455.116 194.966 454.903 195.367C454.689 195.768 454.382 196.081 453.981 196.305C453.585 196.529 453.114 196.641 452.567 196.641C452.015 196.641 451.538 196.529 451.137 196.305C450.736 196.081 450.426 195.768 450.207 195.367C449.989 194.966 449.879 194.497 449.879 193.961ZM451.153 193.188V193.961C451.153 194.279 451.202 194.557 451.301 194.797C451.405 195.036 451.562 195.224 451.77 195.359C451.984 195.49 452.249 195.555 452.567 195.555C452.879 195.555 453.137 195.49 453.34 195.359C453.549 195.224 453.702 195.036 453.801 194.797C453.905 194.557 453.957 194.279 453.957 193.961V193.188C453.957 192.875 453.905 192.599 453.801 192.359C453.697 192.12 453.541 191.932 453.332 191.797C453.129 191.661 452.869 191.594 452.551 191.594C452.239 191.594 451.978 191.661 451.77 191.797C451.562 191.932 451.405 192.12 451.301 192.359C451.202 192.599 451.153 192.875 451.153 193.188ZM448.622 190.625V202H447.028L442.395 193.141V202H440.942V190.625H442.536L447.184 199.508V190.625H448.622ZM473.002 198.172V199.359H464.783V198.508L469.877 190.625H471.057L469.791 192.906L466.424 198.172H473.002ZM471.416 190.625V202H469.971V190.625H471.416ZM484.383 196.586L483.227 196.289L483.797 190.625H489.633V191.961H485.023L484.68 195.055C484.888 194.935 485.151 194.823 485.469 194.719C485.792 194.615 486.161 194.562 486.578 194.562C487.104 194.562 487.576 194.654 487.992 194.836C488.409 195.013 488.763 195.268 489.055 195.602C489.352 195.935 489.578 196.336 489.734 196.805C489.891 197.273 489.969 197.797 489.969 198.375C489.969 198.922 489.893 199.424 489.742 199.883C489.596 200.341 489.375 200.742 489.078 201.086C488.781 201.424 488.406 201.688 487.953 201.875C487.505 202.062 486.977 202.156 486.367 202.156C485.909 202.156 485.474 202.094 485.062 201.969C484.656 201.839 484.292 201.643 483.969 201.383C483.651 201.117 483.391 200.789 483.188 200.398C482.99 200.003 482.865 199.539 482.812 199.008H484.188C484.25 199.435 484.375 199.794 484.562 200.086C484.75 200.378 484.995 200.599 485.297 200.75C485.604 200.896 485.961 200.969 486.367 200.969C486.711 200.969 487.016 200.909 487.281 200.789C487.547 200.669 487.771 200.497 487.953 200.273C488.135 200.049 488.273 199.779 488.367 199.461C488.466 199.143 488.516 198.786 488.516 198.391C488.516 198.031 488.466 197.698 488.367 197.391C488.268 197.083 488.12 196.815 487.922 196.586C487.729 196.357 487.492 196.18 487.211 196.055C486.93 195.924 486.607 195.859 486.242 195.859C485.758 195.859 485.391 195.924 485.141 196.055C484.896 196.185 484.643 196.362 484.383 196.586Z" fill="white"/>
<mask id="mask0_1_16" style="mask-type:alpha" maskUnits="userSpaceOnUse" x="283" y="150" width="375" height="146">
<path d="M283.5 150H657.5V295.5H535.5L283.5 150Z" fill="#C4C4C4"/>
</mask>
<g mask="url(#mask0_1_16)">
<path d="M188.844 214.781H198.453V238.781C198.453 240.094 198.703 241.344 199.203 242.531C199.703 243.688 200.391 244.703 201.266 245.578C202.141 246.453 203.156 247.141 204.312 247.641C205.5 248.141 206.75 248.391 208.062 248.391H246.453V214.781H256.062V282H246.453V258H208.062C205.406 258 202.906 257.5 200.562 256.5C198.25 255.469 196.219 254.094 194.469 252.375C192.75 250.625 191.375 248.594 190.344 246.281C189.344 243.938 188.844 241.438 188.844 238.781V214.781ZM332.844 260.391C332.844 263.359 332.281 266.156 331.156 268.781C330.031 271.406 328.5 273.703 326.562 275.672C324.625 277.609 322.344 279.156 319.719 280.312C317.094 281.438 314.281 282 311.281 282H270.266V272.391H311.281C312.938 272.391 314.484 272.078 315.922 271.453C317.391 270.828 318.672 269.984 319.766 268.922C320.859 267.828 321.719 266.547 322.344 265.078C322.969 263.609 323.281 262.047 323.281 260.391C323.281 258.734 322.969 257.188 322.344 255.75C321.719 254.281 320.859 253 319.766 251.906C318.672 250.812 317.391 249.953 315.922 249.328C314.484 248.703 312.938 248.391 311.281 248.391H270.359V214.781H328.062V224.391H279.969V238.781H311.281C314.281 238.781 317.094 239.359 319.719 240.516C322.344 241.641 324.625 243.188 326.562 245.156C328.5 247.094 330.031 249.375 331.156 252C332.281 254.625 332.844 257.422 332.844 260.391ZM376.25 214.781H385.859V238.781C385.859 240.094 386.109 241.344 386.609 242.531C387.109 243.688 387.797 244.703 388.672 245.578C389.547 246.453 390.562 247.141 391.719 247.641C392.906 248.141 394.156 248.391 395.469 248.391H433.859V214.781H443.469V282H433.859V258H395.469C392.812 258 390.312 257.5 387.969 256.5C385.656 255.469 383.625 254.094 381.875 252.375C380.156 250.625 378.781 248.594 377.75 246.281C376.75 243.938 376.25 241.438 376.25 238.781V214.781ZM520.25 260.391C520.25 263.359 519.688 266.156 518.562 268.781C517.438 271.406 515.906 273.703 513.969 275.672C512.031 277.609 509.75 279.156 507.125 280.312C504.5 281.438 501.688 282 498.688 282H457.672V272.391H498.688C500.344 272.391 501.891 272.078 503.328 271.453C504.797 270.828 506.078 269.984 507.172 268.922C508.266 267.828 509.125 266.547 509.75 265.078C510.375 263.609 510.688 262.047 510.688 260.391C510.688 258.734 510.375 257.188 509.75 255.75C509.125 254.281 508.266 253 507.172 251.906C506.078 250.812 504.797 249.953 503.328 249.328C501.891 248.703 500.344 248.391 498.688 248.391H457.766V214.781H515.469V224.391H467.375V238.781H498.688C501.688 238.781 504.5 239.359 507.125 240.516C509.75 241.641 512.031 243.188 513.969 245.156C515.906 247.094 517.438 249.375 518.562 252C519.688 254.625 520.25 257.422 520.25 260.391Z" fill="white"/>
</g>
<mask id="mask1_1_16" style="mask-type:alpha" maskUnits="userSpaceOnUse" x="185" y="188" width="393" height="146">
<path d="M577.5 333.5L185 333.5V188H325L577.5 333.5Z" fill="#C4C4C4"/>
</mask>
<g mask="url(#mask1_1_16)">
<path d="M374.844 215.781H384.453V239.781C384.453 241.094 384.703 242.344 385.203 243.531C385.703 244.687 386.391 245.703 387.266 246.578C388.141 247.453 389.156 248.141 390.312 248.641C391.5 249.141 392.75 249.391 394.062 249.391H432.453V215.781H442.062V283H432.453V259H394.062C391.406 259 388.906 258.5 386.562 257.5C384.25 256.469 382.219 255.094 380.469 253.375C378.75 251.625 377.375 249.594 376.344 247.281C375.344 244.937 374.844 242.437 374.844 239.781V215.781Z" fill="white"/>
</g>
<mask id="mask2_1_16" style="mask-type:alpha" maskUnits="userSpaceOnUse" x="0" y="85" width="399" height="146">
<path d="M398.5 230.5L0 230.5V84.9999H146L398.5 230.5Z" fill="#C4C4C4"/>
</mask>
<g mask="url(#mask2_1_16)">
<path d="M86.2656 155.781C86.2656 158.469 85.7656 160.984 84.7656 163.328C83.7656 165.641 82.3906 167.672 80.6406 169.422C78.9219 171.141 76.8906 172.5 74.5469 173.5C72.2344 174.5 69.75 175 67.0938 175H8.6875V165.391H67.0938C68.4375 165.391 69.6875 165.141 70.8438 164.641C72 164.141 73 163.453 73.8438 162.578C74.7188 161.703 75.4062 160.687 75.9062 159.531C76.4062 158.344 76.6562 157.094 76.6562 155.781C76.6562 154.469 76.4062 153.234 75.9062 152.078C75.4062 150.922 74.7188 149.906 73.8438 149.031C73 148.156 72 147.469 70.8438 146.969C69.6875 146.469 68.4375 146.219 67.0938 146.219H27.9062C25.2812 146.219 22.7969 145.719 20.4531 144.719C18.1094 143.719 16.0625 142.359 14.3125 140.641C12.5938 138.891 11.2188 136.844 10.1875 134.5C9.1875 132.156 8.6875 129.656 8.6875 127C8.6875 124.375 9.1875 121.891 10.1875 119.547C11.2188 117.203 12.5938 115.172 14.3125 113.453C16.0625 111.703 18.1094 110.328 20.4531 109.328C22.7969 108.297 25.2812 107.781 27.9062 107.781H81.4844V117.391H27.9062C26.5938 117.391 25.3438 117.641 24.1562 118.141C23 118.641 21.9844 119.328 21.1094 120.203C20.2344 121.078 19.5469 122.109 19.0469 123.297C18.5469 124.453 18.2969 125.687 18.2969 127C18.2969 128.312 18.5469 129.562 19.0469 130.75C19.5469 131.906 20.2344 132.922 21.1094 133.797C21.9844 134.672 23 135.359 24.1562 135.859C25.3438 136.359 26.5938 136.609 27.9062 136.609H67.0938C69.75 136.609 72.2344 137.125 74.5469 138.156C76.8906 139.156 78.9219 140.531 80.6406 142.281C82.3906 144 83.7656 146.031 84.7656 148.375C85.7656 150.687 86.2656 153.156 86.2656 155.781ZM167.922 175H124.656C120 175 115.766 174.125 111.953 172.375C108.141 170.625 104.875 168.234 102.156 165.203C99.4688 162.172 97.3906 158.609 95.9219 154.516C94.4531 150.422 93.7188 146.047 93.7188 141.391C93.7188 136.766 94.4531 132.422 95.9219 128.359C97.3906 124.266 99.4688 120.703 102.156 117.672C104.875 114.609 108.141 112.203 111.953 110.453C115.766 108.672 120 107.781 124.656 107.781H167.922V117.391H124.656C121.344 117.391 118.359 118.031 115.703 119.312C113.078 120.562 110.844 122.281 109 124.469C107.188 126.625 105.781 129.156 104.781 132.062C103.812 134.969 103.328 138.078 103.328 141.391C103.328 144.703 103.812 147.828 104.781 150.766C105.781 153.672 107.188 156.219 109 158.406C110.844 160.562 113.078 162.266 115.703 163.516C118.359 164.766 121.344 165.391 124.656 165.391H167.922V175ZM250.562 175H240.953V146.219H193.984V136.609H240.953V107.781H250.562V175ZM189.203 175H179.594V107.781H189.203V175Z" fill="white"/>
</g>
<mask id="mask3_1_16" style="mask-type:alpha" maskUnits="userSpaceOnUse" x="147" y="71" width="367" height="146">
<path d="M147 70.9999H514V216.5H398.5L147 70.9999Z" fill="#C4C4C4"/>
</mask>
<g mask="url(#mask3_1_16)">
<path d="M77.2812 139.391C77.2812 144.047 76.5312 148.422 75.0312 152.516C73.5625 156.609 71.4688 160.172 68.75 163.203C66.0312 166.234 62.7656 168.625 58.9531 170.375C55.1719 172.125 50.9688 173 46.3438 173H12.4531V163.391H46.3438C49.6562 163.391 52.625 162.766 55.25 161.516C57.9062 160.266 60.1406 158.562 61.9531 156.406C63.7969 154.219 65.2031 151.672 66.1719 148.766C67.1719 145.828 67.6719 142.703 67.6719 139.391C67.6719 136.078 67.1719 132.969 66.1719 130.062C65.2031 127.156 63.7969 124.625 61.9531 122.469C60.1406 120.281 57.9062 118.562 55.25 117.312C52.625 116.031 49.6562 115.391 46.3438 115.391H7.67188V173H-1.9375V105.781H46.3438C50.9688 105.781 55.1719 106.672 58.9531 108.453C62.7656 110.203 66.0312 112.609 68.75 115.672C71.4688 118.703 73.5625 122.266 75.0312 126.359C76.5312 130.422 77.2812 134.766 77.2812 139.391ZM167.141 173H154.156L134 153.781H104.562V144.312H143.141C145.141 144.312 147.016 143.938 148.766 143.188C150.516 142.406 152.031 141.359 153.312 140.047C154.625 138.734 155.656 137.203 156.406 135.453C157.156 133.672 157.531 131.781 157.531 129.781C157.531 127.781 157.156 125.906 156.406 124.156C155.656 122.406 154.625 120.891 153.312 119.609C152.031 118.297 150.516 117.266 148.766 116.516C147.016 115.766 145.141 115.391 143.141 115.391H99.1719V173H89.5625V105.781H143.141C146.453 105.781 149.562 106.422 152.469 107.703C155.375 108.953 157.906 110.672 160.062 112.859C162.25 115.016 163.969 117.547 165.219 120.453C166.5 123.359 167.141 126.469 167.141 129.781C167.141 132.781 166.625 135.625 165.594 138.312C164.562 140.969 163.141 143.359 161.328 145.484C159.516 147.578 157.375 149.328 154.906 150.734C152.469 152.109 149.828 153.031 146.984 153.5L167.141 173ZM250.438 173H240.828V144.219H193.859V134.609H240.828V105.781H250.438V173ZM189.078 173H179.469V105.781H189.078V173ZM346.812 139.391C346.812 144.047 346.078 148.422 344.609 152.516C343.141 156.609 341.047 160.172 338.328 163.203C335.641 166.234 332.406 168.625 328.625 170.375C324.844 172.125 320.641 173 316.016 173H293.656C289 173 284.766 172.125 280.953 170.375C277.141 168.625 273.875 166.234 271.156 163.203C268.469 160.172 266.391 156.609 264.922 152.516C263.453 148.422 262.719 144.047 262.719 139.391C262.719 134.766 263.453 130.422 264.922 126.359C266.391 122.266 268.469 118.703 271.156 115.672C273.875 112.609 277.141 110.203 280.953 108.453C284.766 106.672 289 105.781 293.656 105.781H316.016C320.641 105.781 324.844 106.672 328.625 108.453C332.406 110.203 335.641 112.609 338.328 115.672C341.047 118.703 343.141 122.266 344.609 126.359C346.078 130.422 346.812 134.766 346.812 139.391ZM337.203 139.391C337.203 136.078 336.719 132.969 335.75 130.062C334.781 127.156 333.375 124.625 331.531 122.469C329.719 120.281 327.5 118.562 324.875 117.312C322.281 116.031 319.328 115.391 316.016 115.391H293.656C290.344 115.391 287.359 116.031 284.703 117.312C282.078 118.562 279.844 120.281 278 122.469C276.188 124.625 274.781 127.156 273.781 130.062C272.812 132.969 272.328 136.078 272.328 139.391C272.328 142.703 272.812 145.828 273.781 148.766C274.781 151.672 276.188 154.219 278 156.406C279.844 158.562 282.078 160.266 284.703 161.516C287.359 162.766 290.344 163.391 293.656 163.391H316.016C319.328 163.391 322.281 162.766 324.875 161.516C327.5 160.266 329.719 158.562 331.531 156.406C333.375 154.219 334.781 151.672 335.75 148.766C336.719 145.828 337.203 142.703 337.203 139.391ZM439.344 139.391C439.344 144.047 438.609 148.422 437.141 152.516C435.672 156.609 433.578 160.172 430.859 163.203C428.172 166.234 424.938 168.625 421.156 170.375C417.375 172.125 413.172 173 408.547 173H386.188C381.531 173 377.297 172.125 373.484 170.375C369.672 168.625 366.406 166.234 363.688 163.203C361 160.172 358.922 156.609 357.453 152.516C355.984 148.422 355.25 144.047 355.25 139.391C355.25 134.766 355.984 130.422 357.453 126.359C358.922 122.266 361 118.703 363.688 115.672C366.406 112.609 369.672 110.203 373.484 108.453C377.297 106.672 381.531 105.781 386.188 105.781H408.547C413.172 105.781 417.375 106.672 421.156 108.453C424.938 110.203 428.172 112.609 430.859 115.672C433.578 118.703 435.672 122.266 437.141 126.359C438.609 130.422 439.344 134.766 439.344 139.391ZM429.734 139.391C429.734 136.078 429.25 132.969 428.281 130.062C427.312 127.156 425.906 124.625 424.062 122.469C422.25 120.281 420.031 118.562 417.406 117.312C414.812 116.031 411.859 115.391 408.547 115.391H386.188C382.875 115.391 379.891 116.031 377.234 117.312C374.609 118.562 372.375 120.281 370.531 122.469C368.719 124.625 367.312 127.156 366.312 130.062C365.344 132.969 364.859 136.078 364.859 139.391C364.859 142.703 365.344 145.828 366.312 148.766C367.312 151.672 368.719 154.219 370.531 156.406C372.375 158.562 374.609 160.266 377.234 161.516C379.891 162.766 382.875 163.391 386.188 163.391H408.547C411.859 163.391 414.812 162.766 417.406 161.516C420.031 160.266 422.25 158.562 424.062 156.406C425.906 154.219 427.312 151.672 428.281 148.766C429.25 145.828 429.734 142.703 429.734 139.391ZM515.844 173H451.625V105.781H461.234V163.391H515.844V173Z" fill="white"/>
</g>
</svg>
